<mxfile host="65bd71144e">
    <diagram id="K64mTiAPcThXWcO6knm4" name="sources">
        <mxGraphModel dx="769" dy="577" grid="1" gridSize="10" guides="1" tooltips="1" connect="1" arrows="1" fold="1" page="1" pageScale="1" pageWidth="850" pageHeight="1100" math="0" shadow="0">
            <root>
                <mxCell id="0"/>
                <mxCell id="1" parent="0"/>
                <mxCell id="QNui0WiKvgW3A6eW8whg-1" style="rounded=1;html=1;exitX=0.5;exitY=0;jettySize=auto;endArrow=block;dashed=0;endFill=0;exitDx=0;exitDy=0;entryX=0.5;entryY=1;entryDx=0;entryDy=0;" parent="1" source="QNui0WiKvgW3A6eW8whg-4" target="QNui0WiKvgW3A6eW8whg-5" edge="1">
                    <mxGeometry relative="1" as="geometry">
                        <mxPoint x="540" y="321.9999999999998" as="targetPoint"/>
                    </mxGeometry>
                </mxCell>
                <mxCell id="QNui0WiKvgW3A6eW8whg-2" style="rounded=1;html=1;exitX=0.5;exitY=0;jettySize=auto;endArrow=block;dashed=0;endFill=0;entryX=0;entryY=0.5;entryDx=0;entryDy=0;exitDx=0;exitDy=0;" parent="1" source="QNui0WiKvgW3A6eW8whg-9" target="QNui0WiKvgW3A6eW8whg-5" edge="1">
                    <mxGeometry relative="1" as="geometry">
                        <Array as="points">
                            <mxPoint x="130" y="475"/>
                        </Array>
                        <mxPoint x="540" y="312" as="targetPoint"/>
                    </mxGeometry>
                </mxCell>
                <mxCell id="QNui0WiKvgW3A6eW8whg-3" style="rounded=1;html=1;entryX=1;entryY=0.5;jettySize=auto;endArrow=block;dashed=0;endFill=0;exitX=0.515;exitY=-0.004;exitDx=0;exitDy=0;entryDx=0;entryDy=0;exitPerimeter=0;" parent="1" source="QNui0WiKvgW3A6eW8whg-13" target="QNui0WiKvgW3A6eW8whg-5" edge="1">
                    <mxGeometry relative="1" as="geometry">
                        <Array as="points">
                            <mxPoint x="600" y="475"/>
                        </Array>
                        <mxPoint x="690" y="762" as="sourcePoint"/>
                    </mxGeometry>
                </mxCell>
                <mxCell id="QNui0WiKvgW3A6eW8whg-5" value="&lt;p style=&quot;text-align: center; margin: 0px 0px 0px 4px; font-size: 10px; font-family: Times, serif; color: rgb(0, 0, 0);&quot;&gt;&lt;b&gt;&lt;i&gt;Node&lt;/i&gt;&lt;/b&gt;&lt;/p&gt;&lt;hr size=&quot;1&quot;&gt;&lt;p style=&quot;margin:0px;text-align:start;margin-left:4px;;font-size:10.0px;font-family:Times,serif;color:#000000;&quot;&gt;&lt;br&gt;&lt;/p&gt;&lt;hr size=&quot;1&quot;&gt;&lt;p style=&quot;margin:0px;text-align:start;margin-left:4px;;font-size:10.0px;font-family:Times,serif;color:#000000;&quot;&gt;&lt;br&gt;&lt;/p&gt;" style="verticalAlign=top;align=left;overflow=fill;html=1;rounded=0;shadow=0;comic=0;labelBackgroundColor=none;strokeColor=black;strokeWidth=1;fillColor=#ffffff;" parent="1" vertex="1">
                    <mxGeometry x="295" y="460" width="110" height="30" as="geometry"/>
                </mxCell>
                <mxCell id="QNui0WiKvgW3A6eW8whg-6" style="html=1;entryX=0.5;entryY=0;entryDx=0;entryDy=0;endArrow=diamondThin;endFill=0;exitX=0.5;exitY=1;exitDx=0;exitDy=0;startArrow=none;startFill=0;" parent="1" source="QNui0WiKvgW3A6eW8whg-7" target="QNui0WiKvgW3A6eW8whg-8" edge="1">
                    <mxGeometry relative="1" as="geometry"/>
                </mxCell>
                <mxCell id="GwGj_2nGra1FbeCextQl-1" value="0..*" style="edgeLabel;html=1;align=center;verticalAlign=middle;resizable=0;points=[];" vertex="1" connectable="0" parent="QNui0WiKvgW3A6eW8whg-6">
                    <mxGeometry x="-0.6383" y="1" relative="1" as="geometry">
                        <mxPoint x="8" y="1" as="offset"/>
                    </mxGeometry>
                </mxCell>
                <mxCell id="QNui0WiKvgW3A6eW8whg-7" value="&lt;p style=&quot;text-align: center; margin: 0px 0px 0px 4px; font-size: 10px; font-family: Times, serif; color: rgb(0, 0, 0);&quot;&gt;&lt;b&gt;DragSource&lt;/b&gt;&lt;/p&gt;&lt;hr size=&quot;1&quot;&gt;&lt;p style=&quot;margin:0px;text-align:start;margin-left:4px;;font-size:10.0px;font-family:Times,serif;color:#000000;&quot;&gt;- label : String&lt;br&gt;&lt;/p&gt;&lt;p style=&quot;margin:0px;text-align:start;margin-left:4px;;font-size:10.0px;font-family:Times,serif;color:#000000;&quot;&gt;- data : Any&lt;br&gt;- default_params : Optional[Dict[String, String]]&lt;br&gt;- generator : factory_method&lt;br&gt;- params : Optional[Tuple[Dict[String, Any]]]&lt;/p&gt;&lt;p style=&quot;margin:0px;text-align:start;margin-left:4px;;font-size:10.0px;font-family:Times,serif;color:#000000;&quot;&gt;- node_params : Dict[String, Any]&lt;br&gt;&lt;/p&gt;&lt;hr size=&quot;1&quot;&gt;&lt;p style=&quot;margin:0px;text-align:start;margin-left:4px;;font-size:10.0px;font-family:Times,serif;color:#000000;&quot;&gt;+ submit(parent: Union[String, Integer])&lt;/p&gt;" style="verticalAlign=top;align=left;overflow=fill;html=1;rounded=0;shadow=0;comic=0;labelBackgroundColor=none;strokeColor=black;strokeWidth=1;fillColor=#ffffff;" parent="1" vertex="1">
                    <mxGeometry x="30" y="670" width="210" height="130" as="geometry"/>
                </mxCell>
                <mxCell id="QNui0WiKvgW3A6eW8whg-8" value="&lt;p style=&quot;text-align: center; margin: 0px 0px 0px 4px; font-size: 10px; font-family: Times, serif; color: rgb(0, 0, 0);&quot;&gt;&lt;b&gt;DragSourceContainer&lt;/b&gt;&lt;/p&gt;&lt;hr size=&quot;1&quot;&gt;&lt;p style=&quot;margin:0px;text-align:start;margin-left:4px;;font-size:10.0px;font-family:Times,serif;color:#000000;&quot;&gt;- uuid : Union[String, Integer]&lt;br&gt;- label : String&lt;br&gt;- width : Integer&lt;/p&gt;&lt;p style=&quot;margin:0px;text-align:start;margin-left:4px;;font-size:10.0px;font-family:Times,serif;color:#000000;&quot;&gt;- height : Interger&lt;br&gt;&lt;/p&gt;&lt;p style=&quot;margin:0px;text-align:start;margin-left:4px;;font-size:10.0px;font-family:Times,serif;color:#000000;&quot;&gt;- children : List[DragSource]&lt;br&gt;&lt;/p&gt;&lt;hr size=&quot;1&quot;&gt;&lt;p style=&quot;margin:0px;text-align:start;margin-left:4px;;font-size:10.0px;font-family:Times,serif;color:#000000;&quot;&gt;+ add_drag_source(sources: Tuple[DragSource])&lt;br&gt;+ submit(parent: Union[String, Integer])&lt;/p&gt;" style="verticalAlign=top;align=left;overflow=fill;html=1;rounded=0;shadow=0;comic=0;labelBackgroundColor=none;strokeColor=black;strokeWidth=1;fillColor=#ffffff;" parent="1" vertex="1">
                    <mxGeometry x="32.5" y="830" width="205" height="130" as="geometry"/>
                </mxCell>
                <mxCell id="QNui0WiKvgW3A6eW8whg-9" value="&lt;p style=&quot;text-align: center; margin: 0px 0px 0px 4px; font-size: 10px; font-family: Times, serif; color: rgb(0, 0, 0);&quot;&gt;&lt;b&gt;LayerNode&lt;/b&gt;&lt;/p&gt;&lt;hr size=&quot;1&quot;&gt;&lt;p style=&quot;margin:0px;text-align:start;margin-left:4px;;font-size:10.0px;font-family:Times,serif;color:#000000;&quot;&gt;+ factory(name : String, data : Any,&amp;nbsp;&lt;/p&gt;&lt;p style=&quot;margin:0px;text-align:start;margin-left:4px;;font-size:10.0px;font-family:Times,serif;color:#000000;&quot;&gt;&lt;span style=&quot;&quot;&gt;&#9;&lt;/span&gt;&lt;span style=&quot;&quot;&gt;&#9;&lt;/span&gt;&lt;span style=&quot;white-space: pre;&quot;&gt;&#9;&lt;/span&gt;&lt;span style=&quot;white-space: pre;&quot;&gt;&#9;&lt;/span&gt;params: Tuple[Dict[String, Any]],&amp;nbsp;&lt;/p&gt;&lt;p style=&quot;margin:0px;text-align:start;margin-left:4px;;font-size:10.0px;font-family:Times,serif;color:#000000;&quot;&gt;&lt;span style=&quot;&quot;&gt;&#9;&lt;/span&gt;&lt;span style=&quot;&quot;&gt;&#9;&lt;/span&gt;&lt;span style=&quot;white-space: pre;&quot;&gt;&#9;&lt;/span&gt;&lt;span style=&quot;white-space: pre;&quot;&gt;&#9;&lt;/span&gt;default_params: Dict[String, String],&lt;/p&gt;&lt;p style=&quot;margin:0px;text-align:start;margin-left:4px;;font-size:10.0px;font-family:Times,serif;color:#000000;&quot;&gt;&lt;span style=&quot;white-space: pre;&quot;&gt;&#9;&lt;/span&gt;&lt;span style=&quot;white-space: pre;&quot;&gt;&#9;&lt;/span&gt;node_params)&lt;/p&gt;" style="verticalAlign=top;align=left;overflow=fill;html=1;rounded=0;shadow=0;comic=0;labelBackgroundColor=none;strokeColor=black;strokeWidth=1;fillColor=#ffffff;" parent="1" vertex="1">
                    <mxGeometry x="30" y="550" width="200" height="80" as="geometry"/>
                </mxCell>
                <mxCell id="QNui0WiKvgW3A6eW8whg-10" style="html=1;entryX=1;entryY=0.5;entryDx=0;entryDy=0;endArrow=none;endFill=0;startArrow=diamondThin;startFill=1;exitX=0;exitY=0.5;exitDx=0;exitDy=0;" parent="1" target="QNui0WiKvgW3A6eW8whg-7" edge="1" source="QNui0WiKvgW3A6eW8whg-12">
                    <mxGeometry relative="1" as="geometry">
                        <mxPoint x="310" y="794" as="sourcePoint"/>
                        <Array as="points">
                            <mxPoint x="280" y="794"/>
                            <mxPoint x="280" y="735"/>
                        </Array>
                    </mxGeometry>
                </mxCell>
                <mxCell id="9Xu86F9LhHJZXBnwUDhi-4" value="1..*" style="edgeLabel;html=1;align=center;verticalAlign=middle;resizable=0;points=[];" vertex="1" connectable="0" parent="QNui0WiKvgW3A6eW8whg-10">
                    <mxGeometry x="0.8249" y="-1" relative="1" as="geometry">
                        <mxPoint y="-7" as="offset"/>
                    </mxGeometry>
                </mxCell>
                <mxCell id="QNui0WiKvgW3A6eW8whg-12" value="&lt;p style=&quot;text-align: center; margin: 0px 0px 0px 4px; font-size: 10px; font-family: Times, serif; color: rgb(0, 0, 0);&quot;&gt;&lt;b&gt;ModuleNode&lt;/b&gt;&lt;/p&gt;&lt;hr size=&quot;1&quot;&gt;&lt;p style=&quot;margin:0px;text-align:start;margin-left:4px;;font-size:10.0px;font-family:Times,serif;color:#000000;&quot;&gt;- node_editor : Union[String, Integer]&lt;br&gt;- pos : Dict[String, Integer]&lt;br&gt;&lt;/p&gt;&lt;p style=&quot;margin:0px;text-align:start;margin-left:4px;;font-size:10.0px;font-family:Times,serif;color:#000000;&quot;&gt;+ nodes : List[Node]&lt;br&gt;+ sequential : Tuple[Tuple[DragSource, Dict[String, Any]]]&lt;/p&gt;&lt;hr size=&quot;1&quot;&gt;&lt;p style=&quot;margin:0px;text-align:start;margin-left:4px;;font-size:10.0px;font-family:Times,serif;color:#000000;&quot;&gt;&lt;span style=&quot;background-color: initial;&quot;&gt;- replace_default_params(source: Tuple[Tuple[Object, Dict[String, Any]]],&amp;nbsp;&lt;/span&gt;&lt;br&gt;&lt;/p&gt;&lt;p style=&quot;margin:0px;text-align:start;margin-left:4px;;font-size:10.0px;font-family:Times,serif;color:#000000;&quot;&gt;&lt;span style=&quot;&quot;&gt;&#9;&lt;/span&gt;&lt;span style=&quot;&quot;&gt;&#9;&lt;/span&gt;&lt;span style=&quot;&quot;&gt;&#9;&lt;/span&gt;&lt;span style=&quot;&quot;&gt;&#9;&lt;/span&gt;&lt;span style=&quot;&quot;&gt;&#9;&lt;/span&gt;&lt;span style=&quot;&quot;&gt;&#9;&lt;/span&gt;&lt;span style=&quot;&quot;&gt;&#9;&lt;/span&gt;&lt;span style=&quot;&quot;&gt;&#9;&lt;/span&gt;&lt;span style=&quot;&quot;&gt;&#9;&lt;/span&gt;&lt;span style=&quot;&quot;&gt;&#9;&lt;/span&gt;&amp;nbsp; &lt;span style=&quot;white-space: pre;&quot;&gt;&#9;&lt;/span&gt;&lt;span style=&quot;white-space: pre;&quot;&gt;&#9;&lt;/span&gt;&lt;span style=&quot;white-space: pre;&quot;&gt;&#9;&lt;/span&gt;&lt;span style=&quot;white-space: pre;&quot;&gt;&#9;&lt;/span&gt;&lt;span style=&quot;white-space: pre;&quot;&gt;&#9;&lt;/span&gt;&amp;nbsp;defaults: Dict[String, Any])&lt;br&gt;- submit(parent: Union[String, Integer])&lt;/p&gt;&lt;p style=&quot;border-color: var(--border-color); margin: 0px 0px 0px 4px; font-size: 10px; font-family: Times, serif;&quot;&gt;&lt;font color=&quot;#000000&quot;&gt;+ factory(name: String,&amp;nbsp;&lt;/font&gt;&lt;/p&gt;&lt;p style=&quot;border-color: var(--border-color); margin: 0px 0px 0px 4px; font-size: 10px; font-family: Times, serif;&quot;&gt;&lt;font color=&quot;#000000&quot;&gt;&lt;span style=&quot;border-color: var(--border-color);&quot;&gt;&#9;&lt;/span&gt;&lt;span style=&quot;border-color: var(--border-color);&quot;&gt;&#9;&lt;/span&gt;&lt;span style=&quot;white-space: pre;&quot;&gt;&#9;&lt;/span&gt;&lt;span style=&quot;white-space: pre;&quot;&gt;&#9;&lt;/span&gt;sequential: Tuple[Tuple[DragSource, Dict[String, Any]]],&amp;nbsp;&lt;/font&gt;&lt;/p&gt;&lt;p style=&quot;border-color: var(--border-color); margin: 0px 0px 0px 4px; font-size: 10px; font-family: Times, serif;&quot;&gt;&lt;font color=&quot;#000000&quot;&gt;&lt;span style=&quot;border-color: var(--border-color);&quot;&gt;&lt;/span&gt;&lt;span style=&quot;border-color: var(--border-color);&quot;&gt;&lt;/span&gt;&lt;span style=&quot;border-color: var(--border-color);&quot;&gt;&#9;&lt;/span&gt;&lt;span style=&quot;border-color: var(--border-color);&quot;&gt;&#9;&lt;/span&gt;&lt;span style=&quot;white-space: pre;&quot;&gt;&#9;&lt;/span&gt;&lt;span style=&quot;white-space: pre;&quot;&gt;&#9;&lt;/span&gt;params: Dict[String, Any],&amp;nbsp;&lt;/font&gt;&lt;/p&gt;&lt;p style=&quot;border-color: var(--border-color); margin: 0px 0px 0px 4px; font-size: 10px; font-family: Times, serif;&quot;&gt;&lt;font color=&quot;#000000&quot;&gt;&lt;span style=&quot;border-color: var(--border-color);&quot;&gt;&#9;&lt;/span&gt;&lt;span style=&quot;border-color: var(--border-color);&quot;&gt;&#9;&lt;/span&gt;&lt;span style=&quot;white-space: pre;&quot;&gt;&#9;&lt;/span&gt;&lt;span style=&quot;white-space: pre;&quot;&gt;&#9;&lt;/span&gt;default_params: Dict[String, String],&lt;br&gt;&lt;span style=&quot;white-space: pre;&quot;&gt;&#9;&lt;/span&gt;&lt;span style=&quot;white-space: pre;&quot;&gt;&#9;&lt;/span&gt;node_params)&lt;/font&gt;&lt;/p&gt;&lt;p style=&quot;margin:0px;text-align:start;margin-left:4px;;font-size:10.0px;font-family:Times,serif;color:#000000;&quot;&gt;+ submit_module()&lt;/p&gt;" style="verticalAlign=top;align=left;overflow=fill;html=1;rounded=0;shadow=0;comic=0;labelBackgroundColor=none;strokeColor=black;strokeWidth=1;fillColor=#ffffff;" parent="1" vertex="1">
                    <mxGeometry x="312" y="688" width="315" height="212" as="geometry"/>
                </mxCell>
                <mxCell id="QNui0WiKvgW3A6eW8whg-13" value="&lt;p style=&quot;text-align: center; margin: 0px 0px 0px 4px; font-size: 10px; font-family: Times, serif; color: rgb(0, 0, 0);&quot;&gt;&lt;b&gt;TrainParamsNode&lt;/b&gt;&lt;/p&gt;&lt;hr size=&quot;1&quot;&gt;&lt;p style=&quot;margin:0px;text-align:start;margin-left:4px;;font-size:10.0px;font-family:Times,serif;color:#000000;&quot;&gt;+ pipeline : Optional[Pipeline]&lt;/p&gt;&lt;hr size=&quot;1&quot;&gt;&lt;p style=&quot;margin:0px;text-align:start;margin-left:4px;;font-size:10.0px;font-family:Times,serif;color:#000000;&quot;&gt;+ factory(name: String, data: Any,&amp;nbsp;&lt;/p&gt;&lt;p style=&quot;margin:0px;text-align:start;margin-left:4px;;font-size:10.0px;font-family:Times,serif;color:#000000;&quot;&gt;&lt;span style=&quot;white-space: pre;&quot;&gt;&#9;&lt;/span&gt;&lt;span style=&quot;white-space: pre;&quot;&gt;&#9;&lt;/span&gt;train_params: Tuple[Dict[String, Any]],&lt;br&gt;&lt;span style=&quot;white-space: pre;&quot;&gt;&#9;&lt;/span&gt;&lt;span style=&quot;white-space: pre;&quot;&gt;&#9;&lt;/span&gt;node_params)&lt;br&gt;+ set_pipline(pipeline: Pipeline)&lt;/p&gt;" style="verticalAlign=top;align=left;overflow=fill;html=1;rounded=0;shadow=0;comic=0;labelBackgroundColor=none;strokeColor=black;strokeWidth=1;fillColor=#ffffff;" parent="1" vertex="1">
                    <mxGeometry x="490" y="546" width="212.75" height="104" as="geometry"/>
                </mxCell>
                <mxCell id="QNui0WiKvgW3A6eW8whg-14" style="rounded=1;html=1;entryX=1.001;entryY=0.402;jettySize=auto;endArrow=diamondThin;dashed=0;endFill=0;entryDx=0;entryDy=0;exitX=0;exitY=0.5;exitDx=0;exitDy=0;entryPerimeter=0;" parent="1" source="QNui0WiKvgW3A6eW8whg-13" target="QNui0WiKvgW3A6eW8whg-4" edge="1">
                    <mxGeometry relative="1" as="geometry">
                        <mxPoint x="719.9999999999998" y="820.0050000000003" as="sourcePoint"/>
                        <mxPoint x="639.9999999999998" y="642.1875" as="targetPoint"/>
                    </mxGeometry>
                </mxCell>
                <mxCell id="9Xu86F9LhHJZXBnwUDhi-1" value="1" style="edgeLabel;html=1;align=center;verticalAlign=middle;resizable=0;points=[];" vertex="1" connectable="0" parent="QNui0WiKvgW3A6eW8whg-14">
                    <mxGeometry x="-0.5677" y="-1" relative="1" as="geometry">
                        <mxPoint y="-8" as="offset"/>
                    </mxGeometry>
                </mxCell>
                <mxCell id="QNui0WiKvgW3A6eW8whg-15" value="" style="html=1;exitX=0.5;exitY=0;exitDx=0;exitDy=0;endArrow=none;endFill=0;entryX=0.767;entryY=0.991;entryDx=0;entryDy=0;entryPerimeter=0;startArrow=diamondThin;startFill=1;" parent="1" source="QNui0WiKvgW3A6eW8whg-12" target="QNui0WiKvgW3A6eW8whg-5" edge="1">
                    <mxGeometry relative="1" as="geometry">
                        <Array as="points">
                            <mxPoint x="470" y="510"/>
                            <mxPoint x="380" y="510"/>
                        </Array>
                        <mxPoint x="595" y="958" as="sourcePoint"/>
                        <mxPoint x="425" y="490" as="targetPoint"/>
                    </mxGeometry>
                </mxCell>
                <mxCell id="9Xu86F9LhHJZXBnwUDhi-2" value="1..*" style="edgeLabel;html=1;align=center;verticalAlign=middle;resizable=0;points=[];" vertex="1" connectable="0" parent="QNui0WiKvgW3A6eW8whg-15">
                    <mxGeometry x="0.8287" y="-2" relative="1" as="geometry">
                        <mxPoint x="6" y="-9" as="offset"/>
                    </mxGeometry>
                </mxCell>
                <mxCell id="QNui0WiKvgW3A6eW8whg-4" value="&lt;p style=&quot;text-align: center; margin: 0px 0px 0px 4px; font-size: 10px; font-family: Times, serif; color: rgb(0, 0, 0);&quot;&gt;&lt;b&gt;DataNode&lt;/b&gt;&lt;/p&gt;&lt;hr size=&quot;1&quot;&gt;&lt;p style=&quot;margin:0px;text-align:start;margin-left:4px;;font-size:10.0px;font-family:Times,serif;color:#000000;&quot;&gt;- default_params : Optional[Dict[String, String]]&lt;br&gt;+ train_params : TrainParamsNode&lt;/p&gt;&lt;hr size=&quot;1&quot;&gt;&lt;p style=&quot;margin:0px;text-align:start;margin-left:4px;;font-size:10.0px;font-family:Times,serif;color:#000000;&quot;&gt;+ factory(name: String, data : Any,&amp;nbsp;&lt;/p&gt;&lt;p style=&quot;margin:0px;text-align:start;margin-left:4px;;font-size:10.0px;font-family:Times,serif;color:#000000;&quot;&gt;&lt;span style=&quot;&quot;&gt;&#9;&lt;/span&gt;&lt;span style=&quot;&quot;&gt;&#9;&lt;/span&gt;&lt;span style=&quot;white-space: pre;&quot;&gt;&#9;&lt;/span&gt;&lt;span style=&quot;white-space: pre;&quot;&gt;&#9;&lt;/span&gt;params: Tuple[Dict[String, Any]],&amp;nbsp;&lt;/p&gt;&lt;p style=&quot;margin:0px;text-align:start;margin-left:4px;;font-size:10.0px;font-family:Times,serif;color:#000000;&quot;&gt;&lt;span style=&quot;&quot;&gt;&#9;&lt;/span&gt;&lt;span style=&quot;&quot;&gt;&#9;&lt;/span&gt;&lt;span style=&quot;white-space: pre;&quot;&gt;&#9;&lt;/span&gt;&lt;span style=&quot;white-space: pre;&quot;&gt;&#9;&lt;/span&gt;default_params: Dict[String, String],&lt;/p&gt;&lt;p style=&quot;margin:0px;text-align:start;margin-left:4px;;font-size:10.0px;font-family:Times,serif;color:#000000;&quot;&gt;&lt;span style=&quot;white-space: pre;&quot;&gt;&#9;&lt;/span&gt;&lt;span style=&quot;white-space: pre;&quot;&gt;&#9;&lt;/span&gt;node_params)&lt;br&gt;+ submit(parent)&lt;/p&gt;" style="verticalAlign=top;align=left;overflow=fill;html=1;rounded=0;shadow=0;comic=0;labelBackgroundColor=none;strokeColor=black;strokeWidth=1;fillColor=#ffffff;" parent="1" vertex="1">
                    <mxGeometry x="251" y="546" width="200" height="130" as="geometry"/>
                </mxCell>
            </root>
        </mxGraphModel>
    </diagram>
    <diagram id="6r_xpKXERiTlyDhPkCjZ" name="nodes">
        <mxGraphModel dx="1103" dy="696" grid="1" gridSize="10" guides="1" tooltips="1" connect="1" arrows="1" fold="1" page="1" pageScale="1" pageWidth="850" pageHeight="1100" math="0" shadow="0">
            <root>
                <mxCell id="0"/>
                <mxCell id="1" parent="0"/>
                <mxCell id="HkJWCfvpSoQ0pwpmEEpQ-1" style="edgeStyle=none;html=1;entryX=0.995;entryY=0.405;entryDx=0;entryDy=0;endArrow=diamondThin;endFill=1;entryPerimeter=0;" parent="1" target="HkJWCfvpSoQ0pwpmEEpQ-7" edge="1">
                    <mxGeometry relative="1" as="geometry">
                        <Array as="points">
                            <mxPoint x="390" y="250"/>
                            <mxPoint x="320" y="250"/>
                            <mxPoint x="320" y="160"/>
                        </Array>
                        <mxPoint x="390" y="270" as="sourcePoint"/>
                    </mxGeometry>
                </mxCell>
                <mxCell id="J3j2OiS86Yg63V_dSSBG-4" value="0..*" style="edgeLabel;html=1;align=center;verticalAlign=middle;resizable=0;points=[];" vertex="1" connectable="0" parent="HkJWCfvpSoQ0pwpmEEpQ-1">
                    <mxGeometry x="-0.9218" relative="1" as="geometry">
                        <mxPoint x="-11" as="offset"/>
                    </mxGeometry>
                </mxCell>
                <mxCell id="HkJWCfvpSoQ0pwpmEEpQ-2" value="&lt;p style=&quot;text-align: center; margin: 0px 0px 0px 4px; font-size: 10px; font-family: Times, serif; color: rgb(0, 0, 0);&quot;&gt;&lt;b&gt;&lt;i&gt;Node&lt;/i&gt;&lt;/b&gt;&lt;/p&gt;&lt;hr size=&quot;1&quot;&gt;&lt;p style=&quot;margin:0px;text-align:start;margin-left:4px;;font-size:10.0px;font-family:Times,serif;color:#000000;&quot;&gt;- uuid : Union[String, Integer]&lt;br&gt;&lt;/p&gt;&lt;p style=&quot;margin:0px;text-align:start;margin-left:4px;;font-size:10.0px;font-family:Times,serif;color:#000000;&quot;&gt;# label : String&lt;br style=&quot;border-color: var(--border-color);&quot;&gt;# node_params : Dict[String, Any]&lt;br&gt;&lt;/p&gt;&lt;p style=&quot;margin:0px;text-align:start;margin-left:4px;;font-size:10.0px;font-family:Times,serif;color:#000000;&quot;&gt;# data : Any&lt;br&gt;# input_attributes : List[InputNodeAttribute]&lt;br&gt;# output_attributes : List[OutputNodeAttribute]&lt;br&gt;# params : List[ParamNode]&lt;br&gt;&lt;/p&gt;&lt;hr size=&quot;1&quot;&gt;&lt;p style=&quot;margin:0px;text-align:start;margin-left:4px;;font-size:10.0px;font-family:Times,serif;color:#000000;&quot;&gt;# add_input_attribute(attribute: InputNodeAttribute)&lt;br&gt;# add_output_attribute(attribute: OutputNodeAttribute)&lt;br&gt;# add_params(params: Tuple[Dict[String, Any]])&amp;nbsp;&lt;br&gt;# finish()&amp;nbsp;&amp;nbsp;&lt;br&gt;&lt;/p&gt;&lt;p style=&quot;margin:0px;text-align:start;margin-left:4px;;font-size:10.0px;font-family:Times,serif;color:#000000;&quot;&gt;# submit(parent)&lt;/p&gt;" style="verticalAlign=top;align=left;overflow=fill;html=1;rounded=0;shadow=0;comic=0;labelBackgroundColor=none;strokeColor=black;strokeWidth=1;fillColor=#ffffff;" parent="1" vertex="1">
                    <mxGeometry x="330.25" y="270" width="243" height="190" as="geometry"/>
                </mxCell>
                <mxCell id="HkJWCfvpSoQ0pwpmEEpQ-3" style="edgeStyle=none;html=1;endArrow=diamondThin;endFill=1;exitX=1.001;exitY=0.497;exitDx=0;exitDy=0;exitPerimeter=0;" parent="1" source="HkJWCfvpSoQ0pwpmEEpQ-5" edge="1">
                    <mxGeometry relative="1" as="geometry">
                        <mxPoint x="330" y="340" as="targetPoint"/>
                    </mxGeometry>
                </mxCell>
                <mxCell id="J3j2OiS86Yg63V_dSSBG-2" value="0..*" style="edgeLabel;html=1;align=center;verticalAlign=middle;resizable=0;points=[];" vertex="1" connectable="0" parent="HkJWCfvpSoQ0pwpmEEpQ-3">
                    <mxGeometry x="-0.6832" y="1" relative="1" as="geometry">
                        <mxPoint x="2" y="-8" as="offset"/>
                    </mxGeometry>
                </mxCell>
                <mxCell id="HkJWCfvpSoQ0pwpmEEpQ-4" style="edgeStyle=none;html=1;entryX=-0.002;entryY=0.309;entryDx=0;entryDy=0;endArrow=none;endFill=0;entryPerimeter=0;startArrow=classic;startFill=1;dashed=1;" parent="1" source="HkJWCfvpSoQ0pwpmEEpQ-5" target="HkJWCfvpSoQ0pwpmEEpQ-6" edge="1">
                    <mxGeometry relative="1" as="geometry">
                        <Array as="points">
                            <mxPoint x="170" y="240"/>
                            <mxPoint x="300" y="240"/>
                            <mxPoint x="300" y="144"/>
                        </Array>
                    </mxGeometry>
                </mxCell>
                <mxCell id="HkJWCfvpSoQ0pwpmEEpQ-5" value="&lt;p style=&quot;text-align: center; margin: 0px 0px 0px 4px; font-size: 10px; font-family: Times, serif; color: rgb(0, 0, 0);&quot;&gt;&lt;b&gt;InputNodeAttribute&lt;/b&gt;&lt;/p&gt;&lt;hr size=&quot;1&quot;&gt;&lt;p style=&quot;margin:0px;text-align:start;margin-left:4px;;font-size:10.0px;font-family:Times,serif;color:#000000;&quot;&gt;- uuid : Union[String, Integer]&lt;br&gt;&lt;/p&gt;&lt;p style=&quot;margin:0px;text-align:start;margin-left:4px;;font-size:10.0px;font-family:Times,serif;color:#000000;&quot;&gt;- linked_out_attr : OutputNodeAttribute&lt;/p&gt;&lt;p style=&quot;margin:0px;text-align:start;margin-left:4px;;font-size:10.0px;font-family:Times,serif;color:#000000;&quot;&gt;- label : String&lt;br&gt;&lt;/p&gt;&lt;hr size=&quot;1&quot;&gt;&lt;p style=&quot;margin:0px;text-align:start;margin-left:4px;;font-size:10.0px;font-family:Times,serif;color:#000000;&quot;&gt;+ get_node() : Node&lt;/p&gt;&lt;p style=&quot;margin:0px;text-align:start;margin-left:4px;;font-size:10.0px;font-family:Times,serif;color:#000000;&quot;&gt;+ set_linked_attr(out_attr: OutputNodeAttribute)&lt;br&gt;+ reset_linked_attr()&lt;br&gt;# submit(parent: Union[String, Integer])&lt;/p&gt;" style="verticalAlign=top;align=left;overflow=fill;html=1;rounded=0;shadow=0;comic=0;labelBackgroundColor=none;strokeColor=black;strokeWidth=1;fillColor=#ffffff;" parent="1" vertex="1">
                    <mxGeometry x="59" y="275" width="220" height="130" as="geometry"/>
                </mxCell>
                <mxCell id="HkJWCfvpSoQ0pwpmEEpQ-6" value="&lt;p style=&quot;text-align: center; margin: 0px 0px 0px 4px; font-size: 10px; font-family: Times, serif; color: rgb(0, 0, 0);&quot;&gt;&lt;b&gt;LinkNode&lt;/b&gt;&lt;/p&gt;&lt;hr size=&quot;1&quot;&gt;&lt;p style=&quot;margin:0px;text-align:start;margin-left:4px;;font-size:10.0px;font-family:Times,serif;color:#000000;&quot;&gt;- uuid : Union[String, Integer]&lt;br&gt;&lt;/p&gt;&lt;p style=&quot;margin:0px;text-align:start;margin-left:4px;;font-size:10.0px;font-family:Times,serif;color:#000000;&quot;&gt;- input_attr : InputNodeAttribute&lt;br&gt;- output_attr : OutputNodeAttribute&lt;br&gt;&lt;/p&gt;&lt;hr size=&quot;1&quot;&gt;&lt;p style=&quot;margin:0px;text-align:start;margin-left:4px;;font-size:10.0px;font-family:Times,serif;color:#000000;&quot;&gt;&lt;u&gt;- delink_callback(node_editor_uuid: Union[String, Integer],&amp;nbsp;&lt;/u&gt;&lt;/p&gt;&lt;p style=&quot;margin:0px;text-align:start;margin-left:4px;;font-size:10.0px;font-family:Times,serif;color:#000000;&quot;&gt;&lt;u&gt;&lt;span style=&quot;white-space: pre;&quot;&gt;&#9;&lt;/span&gt;&lt;span style=&quot;white-space: pre;&quot;&gt;&#9;&lt;/span&gt;&lt;span style=&quot;white-space: pre;&quot;&gt;&#9;&lt;/span&gt;&amp;nbsp; &amp;nbsp; &amp;nbsp;link_uuid: Union[String, Integer])&lt;br&gt;- link_callback(node_editor_uuid: Union[String, Integer],&amp;nbsp;&lt;/u&gt;&lt;/p&gt;&lt;p style=&quot;margin:0px;text-align:start;margin-left:4px;;font-size:10.0px;font-family:Times,serif;color:#000000;&quot;&gt;&lt;u&gt;&lt;span style=&quot;white-space: pre;&quot;&gt;&#9;&lt;/span&gt;&lt;span style=&quot;white-space: pre;&quot;&gt;&#9;&lt;/span&gt;&lt;span style=&quot;white-space: pre;&quot;&gt;&#9;&lt;/span&gt;&amp;nbsp;in_out_uuids: Tuple[2])&lt;/u&gt;&lt;br&gt;+ get_attrs() : Tuple[Integer, Integer]&lt;/p&gt;" style="verticalAlign=top;align=left;overflow=fill;html=1;rounded=0;shadow=0;comic=0;labelBackgroundColor=none;strokeColor=black;strokeWidth=1;fillColor=#ffffff;" parent="1" vertex="1">
                    <mxGeometry x="326.88" y="100" width="249.75" height="142.5" as="geometry"/>
                </mxCell>
                <mxCell id="HkJWCfvpSoQ0pwpmEEpQ-7" value="&lt;p style=&quot;text-align: center; margin: 0px 0px 0px 4px; font-size: 10px; font-family: Times, serif; color: rgb(0, 0, 0);&quot;&gt;&lt;b&gt;NodeEditor&lt;/b&gt;&lt;/p&gt;&lt;hr size=&quot;1&quot;&gt;&lt;p style=&quot;margin:0px;text-align:start;margin-left:4px;;font-size:10.0px;font-family:Times,serif;color:#000000;&quot;&gt;- uuid : Union[String, Integer]&lt;br&gt;&lt;/p&gt;&lt;p style=&quot;margin:0px;text-align:start;margin-left:4px;;font-size:10.0px;font-family:Times,serif;color:#000000;&quot;&gt;- nodes : List[Node]&lt;br&gt;&lt;/p&gt;&lt;hr size=&quot;1&quot;&gt;&lt;p style=&quot;margin:0px;text-align:start;margin-left:4px;;font-size:10.0px;font-family:Times,serif;color:#000000;&quot;&gt;+ add_node(node: Node)&lt;br&gt;+ on_drop(sender, app_data, node_params)&lt;/p&gt;&lt;p style=&quot;margin:0px;text-align:start;margin-left:4px;;font-size:10.0px;font-family:Times,serif;color:#000000;&quot;&gt;+ clear()&lt;br&gt;- submit(parent: Union[String, Integer])&lt;/p&gt;" style="verticalAlign=top;align=left;overflow=fill;html=1;rounded=0;shadow=0;comic=0;labelBackgroundColor=none;strokeColor=black;strokeWidth=1;fillColor=#ffffff;" parent="1" vertex="1">
                    <mxGeometry x="100" y="111.25" width="186" height="120" as="geometry"/>
                </mxCell>
                <mxCell id="HkJWCfvpSoQ0pwpmEEpQ-8" style="edgeStyle=none;html=1;entryX=1.001;entryY=0.42;entryDx=0;entryDy=0;entryPerimeter=0;endArrow=diamondThin;endFill=1;" parent="1" source="HkJWCfvpSoQ0pwpmEEpQ-10" target="HkJWCfvpSoQ0pwpmEEpQ-2" edge="1">
                    <mxGeometry relative="1" as="geometry"/>
                </mxCell>
                <mxCell id="J3j2OiS86Yg63V_dSSBG-3" value="0..*" style="edgeLabel;html=1;align=center;verticalAlign=middle;resizable=0;points=[];" vertex="1" connectable="0" parent="HkJWCfvpSoQ0pwpmEEpQ-8">
                    <mxGeometry x="-0.701" y="-1" relative="1" as="geometry">
                        <mxPoint x="-2" y="-7" as="offset"/>
                    </mxGeometry>
                </mxCell>
                <mxCell id="HkJWCfvpSoQ0pwpmEEpQ-9" style="edgeStyle=none;html=1;entryX=1.002;entryY=0.387;entryDx=0;entryDy=0;endArrow=none;endFill=0;exitX=0.5;exitY=0;exitDx=0;exitDy=0;entryPerimeter=0;startArrow=classic;startFill=1;dashed=1;" parent="1" source="HkJWCfvpSoQ0pwpmEEpQ-10" target="HkJWCfvpSoQ0pwpmEEpQ-6" edge="1">
                    <mxGeometry relative="1" as="geometry">
                        <Array as="points">
                            <mxPoint x="730" y="240"/>
                            <mxPoint x="600" y="240"/>
                            <mxPoint x="600" y="155"/>
                        </Array>
                    </mxGeometry>
                </mxCell>
                <mxCell id="HkJWCfvpSoQ0pwpmEEpQ-10" value="&lt;p style=&quot;text-align: center; margin: 0px 0px 0px 4px; font-size: 10px; font-family: Times, serif; color: rgb(0, 0, 0);&quot;&gt;&lt;b&gt;OutputNodeAttribute&lt;/b&gt;&lt;/p&gt;&lt;hr size=&quot;1&quot;&gt;&lt;p style=&quot;margin:0px;text-align:start;margin-left:4px;;font-size:10.0px;font-family:Times,serif;color:#000000;&quot;&gt;- uuid : Union[String, Integer]&lt;br&gt;&lt;/p&gt;&lt;p style=&quot;margin:0px;text-align:start;margin-left:4px;;font-size:10.0px;font-family:Times,serif;color:#000000;&quot;&gt;- children : List[InputNodeAttributes]&lt;br&gt;+ label : String&lt;/p&gt;&lt;hr size=&quot;1&quot;&gt;&lt;p style=&quot;margin:0px;text-align:start;margin-left:4px;;font-size:10.0px;font-family:Times,serif;color:#000000;&quot;&gt;+ add_child(&lt;span style=&quot;background-color: initial;&quot;&gt;child: InputNodeAttribute)&lt;/span&gt;&lt;/p&gt;&lt;p style=&quot;margin:0px;text-align:start;margin-left:4px;;font-size:10.0px;font-family:Times,serif;color:#000000;&quot;&gt;+ remove_child(&lt;span style=&quot;background-color: initial;&quot;&gt;child: InputNodeAttribute)&lt;/span&gt;&lt;/p&gt;&lt;p style=&quot;margin:0px;text-align:start;margin-left:4px;;font-size:10.0px;font-family:Times,serif;color:#000000;&quot;&gt;# submit(parent: Union[String, Integer])&lt;/p&gt;" style="verticalAlign=top;align=left;overflow=fill;html=1;rounded=0;shadow=0;comic=0;labelBackgroundColor=none;strokeColor=black;strokeWidth=1;fillColor=#ffffff;" parent="1" vertex="1">
                    <mxGeometry x="626.81" y="290" width="204.88" height="120" as="geometry"/>
                </mxCell>
                <mxCell id="HkJWCfvpSoQ0pwpmEEpQ-11" style="edgeStyle=none;html=1;entryX=-0.002;entryY=0.483;entryDx=0;entryDy=0;endArrow=diamondThin;endFill=1;exitX=1;exitY=0.5;exitDx=0;exitDy=0;entryPerimeter=0;" parent="1" source="HkJWCfvpSoQ0pwpmEEpQ-12" target="HkJWCfvpSoQ0pwpmEEpQ-2" edge="1">
                    <mxGeometry relative="1" as="geometry">
                        <Array as="points">
                            <mxPoint x="290" y="502"/>
                            <mxPoint x="290" y="362"/>
                        </Array>
                    </mxGeometry>
                </mxCell>
                <mxCell id="J3j2OiS86Yg63V_dSSBG-1" value="0..*" style="edgeLabel;html=1;align=center;verticalAlign=middle;resizable=0;points=[];" vertex="1" connectable="0" parent="HkJWCfvpSoQ0pwpmEEpQ-11">
                    <mxGeometry x="-0.9221" y="1" relative="1" as="geometry">
                        <mxPoint x="4" y="-7" as="offset"/>
                    </mxGeometry>
                </mxCell>
                <mxCell id="HkJWCfvpSoQ0pwpmEEpQ-12" value="&lt;p style=&quot;text-align: center; margin: 0px 0px 0px 4px; font-size: 10px; font-family: Times, serif; color: rgb(0, 0, 0);&quot;&gt;&lt;b&gt;ParamNode&lt;/b&gt;&lt;/p&gt;&lt;hr size=&quot;1&quot;&gt;&lt;p style=&quot;margin:0px;text-align:start;margin-left:4px;;font-size:10.0px;font-family:Times,serif;color:#000000;&quot;&gt;- uuid : Union[String, Integer]&lt;br&gt;&lt;/p&gt;&lt;p style=&quot;margin:0px;text-align:start;margin-left:4px;;font-size:10.0px;font-family:Times,serif;color:#000000;&quot;&gt;- contaiiner_uuid : Union[String, Integer]&lt;/p&gt;&lt;p style=&quot;margin:0px;text-align:start;margin-left:4px;;font-size:10.0px;font-family:Times,serif;color:#000000;&quot;&gt;- label : String&lt;br&gt;- params : Dict[String, Any]&lt;br&gt;- type : String&lt;br&gt;&lt;/p&gt;&lt;hr size=&quot;1&quot;&gt;&lt;p style=&quot;margin:0px;text-align:start;margin-left:4px;;font-size:10.0px;font-family:Times,serif;color:#000000;&quot;&gt;# submit(parent)&lt;/p&gt;&lt;p style=&quot;margin:0px;text-align:start;margin-left:4px;;font-size:10.0px;font-family:Times,serif;color:#000000;&quot;&gt;- submit_in_container(parent, inner_type)&lt;/p&gt;&lt;p style=&quot;margin:0px;text-align:start;margin-left:4px;;font-size:10.0px;font-family:Times,serif;color:#000000;&quot;&gt;+ get_value(with_user_data) : Dict | None&lt;/p&gt;" style="verticalAlign=top;align=left;overflow=fill;html=1;rounded=0;shadow=0;comic=0;labelBackgroundColor=none;strokeColor=black;strokeWidth=1;fillColor=#ffffff;" parent="1" vertex="1">
                    <mxGeometry x="77.94" y="433.5" width="184.13" height="136.5" as="geometry"/>
                </mxCell>
            </root>
        </mxGraphModel>
    </diagram>
    <diagram id="dEwS33xX_CY719S7XQL1" name="Page-1">
        <mxGraphModel dx="1600" dy="1009" grid="1" gridSize="10" guides="1" tooltips="1" connect="1" arrows="1" fold="1" page="1" pageScale="1" pageWidth="850" pageHeight="1100" math="0" shadow="0">
            <root>
                <mxCell id="0"/>
                <mxCell id="1" parent="0"/>
                <mxCell id="64" style="rounded=1;html=1;exitX=0.447;exitY=-0.006;jettySize=auto;curved=0;endArrow=block;dashed=0;endFill=0;exitDx=0;exitDy=0;exitPerimeter=0;" parent="1" source="71" edge="1">
                    <mxGeometry relative="1" as="geometry">
                        <mxPoint x="550" y="280" as="targetPoint"/>
                        <Array as="points">
                            <mxPoint x="540" y="280"/>
                        </Array>
                    </mxGeometry>
                </mxCell>
                <mxCell id="65" style="rounded=1;html=1;exitX=0.648;exitY=0;jettySize=auto;endArrow=block;dashed=0;endFill=0;" parent="1" source="76" edge="1">
                    <mxGeometry relative="1" as="geometry">
                        <Array as="points">
                            <mxPoint x="350" y="550"/>
                            <mxPoint x="530" y="550"/>
                            <mxPoint x="530" y="270"/>
                        </Array>
                        <mxPoint x="550" y="270" as="targetPoint"/>
                    </mxGeometry>
                </mxCell>
                <mxCell id="69" style="rounded=1;html=1;entryX=0.621;entryY=1;jettySize=auto;endArrow=block;dashed=0;endFill=0;exitX=0.25;exitY=0;exitDx=0;exitDy=0;" parent="1" source="82" target="72" edge="1">
                    <mxGeometry relative="1" as="geometry">
                        <Array as="points">
                            <mxPoint x="700" y="710"/>
                        </Array>
                        <mxPoint x="700" y="720" as="sourcePoint"/>
                    </mxGeometry>
                </mxCell>
                <mxCell id="71" value="&lt;p style=&quot;text-align: center; margin: 0px 0px 0px 4px; font-size: 10px; font-family: Times, serif; color: rgb(0, 0, 0);&quot;&gt;&lt;b&gt;DataNode&lt;/b&gt;&lt;/p&gt;&lt;hr size=&quot;1&quot;&gt;&lt;p style=&quot;margin:0px;text-align:start;margin-left:4px;;font-size:10.0px;font-family:Times,serif;color:#000000;&quot;&gt;- default_params : Optional[Dict[String, String]]&lt;br&gt;+ train_params : TrainParamsNode&lt;/p&gt;&lt;hr size=&quot;1&quot;&gt;&lt;p style=&quot;margin:0px;text-align:start;margin-left:4px;;font-size:10.0px;font-family:Times,serif;color:#000000;&quot;&gt;+ factory(name: String, data : Any,&amp;nbsp;&lt;/p&gt;&lt;p style=&quot;margin:0px;text-align:start;margin-left:4px;;font-size:10.0px;font-family:Times,serif;color:#000000;&quot;&gt;&lt;span style=&quot;white-space: pre;&quot;&gt;&#9;&lt;/span&gt;&lt;span style=&quot;white-space: pre;&quot;&gt;&#9;&lt;/span&gt;params: Tuple[Dict[String, Any]],&amp;nbsp;&lt;/p&gt;&lt;p style=&quot;margin:0px;text-align:start;margin-left:4px;;font-size:10.0px;font-family:Times,serif;color:#000000;&quot;&gt;&lt;span style=&quot;white-space: pre;&quot;&gt;&#9;&lt;/span&gt;&lt;span style=&quot;white-space: pre;&quot;&gt;&#9;&lt;/span&gt;default_params: Dict[String, String])&lt;br&gt;+ submit(parent)&lt;/p&gt;" style="verticalAlign=top;align=left;overflow=fill;html=1;rounded=0;shadow=0;comic=0;labelBackgroundColor=none;strokeColor=black;strokeWidth=1;fillColor=#ffffff;" parent="1" vertex="1">
                    <mxGeometry x="450" y="570" width="200" height="120.75" as="geometry"/>
                </mxCell>
                <mxCell id="130" style="edgeStyle=none;html=1;entryX=0.995;entryY=0.405;entryDx=0;entryDy=0;endArrow=classic;endFill=1;exitX=0.25;exitY=0;exitDx=0;exitDy=0;entryPerimeter=0;" parent="1" source="72" target="79" edge="1">
                    <mxGeometry relative="1" as="geometry">
                        <Array as="points">
                            <mxPoint x="610" y="250"/>
                            <mxPoint x="540" y="250"/>
                            <mxPoint x="540" y="160"/>
                        </Array>
                    </mxGeometry>
                </mxCell>
                <mxCell id="72" value="&lt;p style=&quot;text-align: center; margin: 0px 0px 0px 4px; font-size: 10px; font-family: Times, serif; color: rgb(0, 0, 0);&quot;&gt;&lt;b&gt;&lt;i&gt;Node&lt;/i&gt;&lt;/b&gt;&lt;/p&gt;&lt;hr size=&quot;1&quot;&gt;&lt;p style=&quot;margin:0px;text-align:start;margin-left:4px;;font-size:10.0px;font-family:Times,serif;color:#000000;&quot;&gt;- uuid : Union[String, Integer]&lt;br&gt;&lt;/p&gt;&lt;p style=&quot;margin:0px;text-align:start;margin-left:4px;;font-size:10.0px;font-family:Times,serif;color:#000000;&quot;&gt;- label : String&lt;br style=&quot;border-color: var(--border-color);&quot;&gt;- node_params : Dict[String, Any]&lt;br&gt;&lt;/p&gt;&lt;p style=&quot;margin:0px;text-align:start;margin-left:4px;;font-size:10.0px;font-family:Times,serif;color:#000000;&quot;&gt;- data : Any&lt;br&gt;- input_attributes : List[InputNodeAttribute]&lt;br&gt;- output_attributes : List[OutputNodeAttribute]&lt;br&gt;- params : List[ParamNode]&lt;br&gt;&lt;/p&gt;&lt;hr size=&quot;1&quot;&gt;&lt;p style=&quot;margin:0px;text-align:start;margin-left:4px;;font-size:10.0px;font-family:Times,serif;color:#000000;&quot;&gt;# add_input_attribute(attribute: InputNodeAttribute)&lt;br&gt;# add_output_attribute(attribute: OutputNodeAttribute)&lt;br&gt;# add_params(params: Tuple[Dict[String, Any]])&lt;br&gt;# custom()&amp;nbsp;&lt;br&gt;# finish()&amp;nbsp;&amp;nbsp;&lt;br&gt;&lt;/p&gt;&lt;p style=&quot;margin:0px;text-align:start;margin-left:4px;;font-size:10.0px;font-family:Times,serif;color:#000000;&quot;&gt;# submit(parent)&lt;br&gt;&lt;/p&gt;&lt;p style=&quot;margin:0px;text-align:start;margin-left:4px;;font-size:10.0px;font-family:Times,serif;color:#000000;&quot;&gt;+ execute()&amp;nbsp;&lt;br&gt;&lt;/p&gt;" style="verticalAlign=top;align=left;overflow=fill;html=1;rounded=0;shadow=0;comic=0;labelBackgroundColor=none;strokeColor=black;strokeWidth=1;fillColor=#ffffff;" parent="1" vertex="1">
                    <mxGeometry x="550.25" y="260" width="243" height="215.5" as="geometry"/>
                </mxCell>
                <mxCell id="126" style="edgeStyle=none;html=1;entryX=1;entryY=0.5;entryDx=0;entryDy=0;endArrow=classic;endFill=1;exitX=0;exitY=0.5;exitDx=0;exitDy=0;" parent="1" source="73" target="74" edge="1">
                    <mxGeometry relative="1" as="geometry"/>
                </mxCell>
                <mxCell id="73" value="&lt;p style=&quot;text-align: center; margin: 0px 0px 0px 4px; font-size: 10px; font-family: Times, serif; color: rgb(0, 0, 0);&quot;&gt;&lt;b&gt;DragSource&lt;/b&gt;&lt;/p&gt;&lt;hr size=&quot;1&quot;&gt;&lt;p style=&quot;margin:0px;text-align:start;margin-left:4px;;font-size:10.0px;font-family:Times,serif;color:#000000;&quot;&gt;- label : String&lt;br&gt;&lt;/p&gt;&lt;p style=&quot;margin:0px;text-align:start;margin-left:4px;;font-size:10.0px;font-family:Times,serif;color:#000000;&quot;&gt;- data : Any&lt;br&gt;- default_params : Optional[Dict[String, String]]&lt;br&gt;&lt;u&gt;-generator : factory_function&lt;/u&gt;&lt;br&gt;- params : Optional[Tuple[Dict[String, Any]]]&lt;/p&gt;&lt;p style=&quot;margin:0px;text-align:start;margin-left:4px;;font-size:10.0px;font-family:Times,serif;color:#000000;&quot;&gt;- node_params : Dict[String, Any]&lt;br&gt;&lt;/p&gt;&lt;hr size=&quot;1&quot;&gt;&lt;p style=&quot;margin:0px;text-align:start;margin-left:4px;;font-size:10.0px;font-family:Times,serif;color:#000000;&quot;&gt;+ submit(parent: Union[String, Integer])&lt;/p&gt;" style="verticalAlign=top;align=left;overflow=fill;html=1;rounded=0;shadow=0;comic=0;labelBackgroundColor=none;strokeColor=black;strokeWidth=1;fillColor=#ffffff;" parent="1" vertex="1">
                    <mxGeometry x="287.5" y="713" width="218.5" height="130" as="geometry"/>
                </mxCell>
                <mxCell id="74" value="&lt;p style=&quot;text-align: center; margin: 0px 0px 0px 4px; font-size: 10px; font-family: Times, serif; color: rgb(0, 0, 0);&quot;&gt;&lt;b&gt;DragSourceContainer&lt;/b&gt;&lt;/p&gt;&lt;hr size=&quot;1&quot;&gt;&lt;p style=&quot;margin:0px;text-align:start;margin-left:4px;;font-size:10.0px;font-family:Times,serif;color:#000000;&quot;&gt;- uuid : Union[String, Integer]&lt;br&gt;- label : String&lt;br&gt;- width : Integer&lt;/p&gt;&lt;p style=&quot;margin:0px;text-align:start;margin-left:4px;;font-size:10.0px;font-family:Times,serif;color:#000000;&quot;&gt;- height : Interger&lt;br&gt;&lt;/p&gt;&lt;p style=&quot;margin:0px;text-align:start;margin-left:4px;;font-size:10.0px;font-family:Times,serif;color:#000000;&quot;&gt;- children : List[DragSource]&lt;br&gt;&lt;/p&gt;&lt;hr size=&quot;1&quot;&gt;&lt;p style=&quot;margin:0px;text-align:start;margin-left:4px;;font-size:10.0px;font-family:Times,serif;color:#000000;&quot;&gt;+ add_drag_source(sources: Tuple[DragSource])&lt;br&gt;+ submit(parent: Union[String, Integer])&lt;/p&gt;" style="verticalAlign=top;align=left;overflow=fill;html=1;rounded=0;shadow=0;comic=0;labelBackgroundColor=none;strokeColor=black;strokeWidth=1;fillColor=#ffffff;" parent="1" vertex="1">
                    <mxGeometry x="20" y="713" width="205" height="130" as="geometry"/>
                </mxCell>
                <mxCell id="124" style="edgeStyle=none;html=1;endArrow=classic;endFill=1;exitX=1.001;exitY=0.497;exitDx=0;exitDy=0;exitPerimeter=0;" parent="1" source="75" edge="1">
                    <mxGeometry relative="1" as="geometry">
                        <mxPoint x="550" y="340" as="targetPoint"/>
                    </mxGeometry>
                </mxCell>
                <mxCell id="128" style="edgeStyle=none;html=1;entryX=-0.002;entryY=0.309;entryDx=0;entryDy=0;endArrow=classic;endFill=1;entryPerimeter=0;" parent="1" source="75" target="77" edge="1">
                    <mxGeometry relative="1" as="geometry">
                        <Array as="points">
                            <mxPoint x="390" y="240"/>
                            <mxPoint x="520" y="240"/>
                            <mxPoint x="520" y="144"/>
                        </Array>
                    </mxGeometry>
                </mxCell>
                <mxCell id="75" value="&lt;p style=&quot;text-align: center; margin: 0px 0px 0px 4px; font-size: 10px; font-family: Times, serif; color: rgb(0, 0, 0);&quot;&gt;&lt;b&gt;InputNodeAttribute&lt;/b&gt;&lt;/p&gt;&lt;hr size=&quot;1&quot;&gt;&lt;p style=&quot;margin:0px;text-align:start;margin-left:4px;;font-size:10.0px;font-family:Times,serif;color:#000000;&quot;&gt;- uuid : Union[String, Integer]&lt;br&gt;&lt;/p&gt;&lt;p style=&quot;margin:0px;text-align:start;margin-left:4px;;font-size:10.0px;font-family:Times,serif;color:#000000;&quot;&gt;- linked_out_attr : OutputNodeAttribute&lt;br&gt;&lt;/p&gt;&lt;p style=&quot;margin:0px;text-align:start;margin-left:4px;;font-size:10.0px;font-family:Times,serif;color:#000000;&quot;&gt;+ data : Node&lt;br&gt;+ label : String&lt;br&gt;&lt;/p&gt;&lt;hr size=&quot;1&quot;&gt;&lt;p style=&quot;margin:0px;text-align:start;margin-left:4px;;font-size:10.0px;font-family:Times,serif;color:#000000;&quot;&gt;+ get_data()&lt;/p&gt;&lt;p style=&quot;margin:0px;text-align:start;margin-left:4px;;font-size:10.0px;font-family:Times,serif;color:#000000;&quot;&gt;+ set_linked_attr(out_attr: OutputNodeAttribute)&lt;br&gt;+ reset_linked_attr()&lt;br&gt;- submit(parent: Union[String, Integer])&lt;/p&gt;" style="verticalAlign=top;align=left;overflow=fill;html=1;rounded=0;shadow=0;comic=0;labelBackgroundColor=none;strokeColor=black;strokeWidth=1;fillColor=#ffffff;" parent="1" vertex="1">
                    <mxGeometry x="280" y="260" width="220" height="160" as="geometry"/>
                </mxCell>
                <mxCell id="76" value="&lt;p style=&quot;text-align: center; margin: 0px 0px 0px 4px; font-size: 10px; font-family: Times, serif; color: rgb(0, 0, 0);&quot;&gt;&lt;b&gt;LayerNode&lt;/b&gt;&lt;/p&gt;&lt;hr size=&quot;1&quot;&gt;&lt;p style=&quot;margin:0px;text-align:start;margin-left:4px;;font-size:10.0px;font-family:Times,serif;color:#000000;&quot;&gt;+ factory(name : String, data : Any,&amp;nbsp;&lt;/p&gt;&lt;p style=&quot;margin:0px;text-align:start;margin-left:4px;;font-size:10.0px;font-family:Times,serif;color:#000000;&quot;&gt;&lt;span style=&quot;white-space: pre;&quot;&gt;&#9;&lt;/span&gt;&lt;span style=&quot;white-space: pre;&quot;&gt;&#9;&lt;/span&gt;params: Tuple[Dict[String, Any]],&amp;nbsp;&lt;/p&gt;&lt;p style=&quot;margin:0px;text-align:start;margin-left:4px;;font-size:10.0px;font-family:Times,serif;color:#000000;&quot;&gt;&lt;span style=&quot;white-space: pre;&quot;&gt;&#9;&lt;/span&gt;&lt;span style=&quot;white-space: pre;&quot;&gt;&#9;&lt;/span&gt;default_params: Dict[String, String])&lt;/p&gt;" style="verticalAlign=top;align=left;overflow=fill;html=1;rounded=0;shadow=0;comic=0;labelBackgroundColor=none;strokeColor=black;strokeWidth=1;fillColor=#ffffff;" parent="1" vertex="1">
                    <mxGeometry x="220" y="570" width="200" height="65.5" as="geometry"/>
                </mxCell>
                <mxCell id="77" value="&lt;p style=&quot;text-align: center; margin: 0px 0px 0px 4px; font-size: 10px; font-family: Times, serif; color: rgb(0, 0, 0);&quot;&gt;&lt;b&gt;LinkNode&lt;/b&gt;&lt;/p&gt;&lt;hr size=&quot;1&quot;&gt;&lt;p style=&quot;margin:0px;text-align:start;margin-left:4px;;font-size:10.0px;font-family:Times,serif;color:#000000;&quot;&gt;- uuid : Union[String, Integer]&lt;br&gt;&lt;/p&gt;&lt;p style=&quot;margin:0px;text-align:start;margin-left:4px;;font-size:10.0px;font-family:Times,serif;color:#000000;&quot;&gt;- input_attr : InputNodeAttribute&lt;br&gt;- output_attr : OutputNodeAttribute&lt;br&gt;&lt;/p&gt;&lt;hr size=&quot;1&quot;&gt;&lt;p style=&quot;margin:0px;text-align:start;margin-left:4px;;font-size:10.0px;font-family:Times,serif;color:#000000;&quot;&gt;- delink_callback(node_editor_uuid: Union[String, Integer],&amp;nbsp;&lt;/p&gt;&lt;p style=&quot;margin:0px;text-align:start;margin-left:4px;;font-size:10.0px;font-family:Times,serif;color:#000000;&quot;&gt;&lt;span style=&quot;white-space: pre;&quot;&gt;&#9;&lt;/span&gt;&lt;span style=&quot;white-space: pre;&quot;&gt;&#9;&lt;/span&gt;&lt;span style=&quot;white-space: pre;&quot;&gt;&#9;&lt;/span&gt;&amp;nbsp; &amp;nbsp; &amp;nbsp;link_uuid: Union[String, Integer])&lt;br&gt;- link_callback(node_editor_uuid: Union[String, Integer],&amp;nbsp;&lt;/p&gt;&lt;p style=&quot;margin:0px;text-align:start;margin-left:4px;;font-size:10.0px;font-family:Times,serif;color:#000000;&quot;&gt;&lt;span style=&quot;white-space: pre;&quot;&gt;&#9;&lt;/span&gt;&lt;span style=&quot;white-space: pre;&quot;&gt;&#9;&lt;/span&gt;&lt;span style=&quot;white-space: pre;&quot;&gt;&#9;&lt;/span&gt;&amp;nbsp;app_data, user_data)&lt;br&gt;+ get_attrs()&lt;/p&gt;" style="verticalAlign=top;align=left;overflow=fill;html=1;rounded=0;shadow=0;comic=0;labelBackgroundColor=none;strokeColor=black;strokeWidth=1;fillColor=#ffffff;" parent="1" vertex="1">
                    <mxGeometry x="546.88" y="100" width="249.75" height="142.5" as="geometry"/>
                </mxCell>
                <mxCell id="131" style="edgeStyle=none;html=1;entryX=0;entryY=0.25;entryDx=0;entryDy=0;endArrow=none;endFill=0;exitX=0.001;exitY=0.366;exitDx=0;exitDy=0;exitPerimeter=0;startArrow=classic;startFill=1;" parent="1" source="78" target="73" edge="1">
                    <mxGeometry relative="1" as="geometry">
                        <Array as="points">
                            <mxPoint x="265" y="938.75"/>
                            <mxPoint x="265" y="745.75"/>
                        </Array>
                    </mxGeometry>
                </mxCell>
                <mxCell id="133" style="edgeStyle=none;html=1;exitX=1;exitY=0.25;exitDx=0;exitDy=0;endArrow=classic;endFill=1;entryX=0.5;entryY=1;entryDx=0;entryDy=0;" parent="1" source="78" target="72" edge="1">
                    <mxGeometry relative="1" as="geometry">
                        <Array as="points">
                            <mxPoint x="672" y="916"/>
                        </Array>
                    </mxGeometry>
                </mxCell>
                <mxCell id="78" value="&lt;p style=&quot;text-align: center; margin: 0px 0px 0px 4px; font-size: 10px; font-family: Times, serif; color: rgb(0, 0, 0);&quot;&gt;&lt;b&gt;ModuleNode&lt;/b&gt;&lt;/p&gt;&lt;hr size=&quot;1&quot;&gt;&lt;p style=&quot;margin:0px;text-align:start;margin-left:4px;;font-size:10.0px;font-family:Times,serif;color:#000000;&quot;&gt;- node_editor : Union[String, Integer]&lt;br&gt;- pos : Dict[String, Integer]&lt;br&gt;&lt;/p&gt;&lt;p style=&quot;margin:0px;text-align:start;margin-left:4px;;font-size:10.0px;font-family:Times,serif;color:#000000;&quot;&gt;+ nodes : List[Node]&lt;br&gt;+ sequential : Tuple[Tuple[DragSource, Dict[String, Any]]]&lt;/p&gt;&lt;hr size=&quot;1&quot;&gt;&lt;p style=&quot;margin:0px;text-align:start;margin-left:4px;;font-size:10.0px;font-family:Times,serif;color:#000000;&quot;&gt;&lt;span style=&quot;background-color: initial;&quot;&gt;- replace_default_params(source: Tuple[Tuple[Object, Dict[String, Any]]],&amp;nbsp;&lt;/span&gt;&lt;br&gt;&lt;/p&gt;&lt;p style=&quot;margin:0px;text-align:start;margin-left:4px;;font-size:10.0px;font-family:Times,serif;color:#000000;&quot;&gt;&lt;span style=&quot;&quot;&gt;&#9;&lt;/span&gt;&lt;span style=&quot;&quot;&gt;&#9;&lt;/span&gt;&lt;span style=&quot;&quot;&gt;&#9;&lt;/span&gt;&lt;span style=&quot;&quot;&gt;&#9;&lt;/span&gt;&lt;span style=&quot;&quot;&gt;&#9;&lt;/span&gt;&lt;span style=&quot;&quot;&gt;&#9;&lt;/span&gt;&lt;span style=&quot;&quot;&gt;&#9;&lt;/span&gt;&lt;span style=&quot;&quot;&gt;&#9;&lt;/span&gt;&lt;span style=&quot;&quot;&gt;&#9;&lt;/span&gt;&lt;span style=&quot;&quot;&gt;&#9;&lt;/span&gt;&amp;nbsp; &lt;span style=&quot;white-space: pre;&quot;&gt;&#9;&lt;/span&gt;&lt;span style=&quot;white-space: pre;&quot;&gt;&#9;&lt;/span&gt;&lt;span style=&quot;white-space: pre;&quot;&gt;&#9;&lt;/span&gt;&lt;span style=&quot;white-space: pre;&quot;&gt;&#9;&lt;/span&gt;&lt;span style=&quot;white-space: pre;&quot;&gt;&#9;&lt;/span&gt;&amp;nbsp;defaults: Dict[String, Any])&lt;br&gt;- submit(parent: Union[String, Integer])&lt;/p&gt;&lt;p style=&quot;border-color: var(--border-color); margin: 0px 0px 0px 4px; font-size: 10px; font-family: Times, serif;&quot;&gt;+ factory(name: String,&amp;nbsp;&lt;/p&gt;&lt;p style=&quot;border-color: var(--border-color); margin: 0px 0px 0px 4px; font-size: 10px; font-family: Times, serif;&quot;&gt;&lt;span style=&quot;border-color: var(--border-color);&quot;&gt;&#9;&lt;/span&gt;&lt;span style=&quot;border-color: var(--border-color);&quot;&gt;&#9;&lt;/span&gt;&lt;span style=&quot;white-space: pre;&quot;&gt;&#9;&lt;/span&gt;&lt;span style=&quot;white-space: pre;&quot;&gt;&#9;&lt;/span&gt;sequential: Tuple[Tuple[DragSource, Dict[String, Any]]],&amp;nbsp;&lt;/p&gt;&lt;p style=&quot;border-color: var(--border-color); margin: 0px 0px 0px 4px; font-size: 10px; font-family: Times, serif;&quot;&gt;&lt;span style=&quot;border-color: var(--border-color);&quot;&gt;&lt;/span&gt;&lt;span style=&quot;border-color: var(--border-color);&quot;&gt;&lt;/span&gt;&lt;span style=&quot;border-color: var(--border-color);&quot;&gt;&#9;&lt;/span&gt;&lt;span style=&quot;border-color: var(--border-color);&quot;&gt;&#9;&lt;/span&gt;&lt;span style=&quot;white-space: pre;&quot;&gt;&#9;&lt;/span&gt;&lt;span style=&quot;white-space: pre;&quot;&gt;&#9;&lt;/span&gt;params: Dict[String, Any],&amp;nbsp;&lt;/p&gt;&lt;p style=&quot;border-color: var(--border-color); margin: 0px 0px 0px 4px; font-size: 10px; font-family: Times, serif;&quot;&gt;&lt;span style=&quot;border-color: var(--border-color);&quot;&gt;&#9;&lt;/span&gt;&lt;span style=&quot;border-color: var(--border-color);&quot;&gt;&#9;&lt;/span&gt;&lt;span style=&quot;white-space: pre;&quot;&gt;&#9;&lt;/span&gt;&lt;span style=&quot;white-space: pre;&quot;&gt;&#9;&lt;/span&gt;default_params: Dict[String, String])&lt;/p&gt;&lt;p style=&quot;margin:0px;text-align:start;margin-left:4px;;font-size:10.0px;font-family:Times,serif;color:#000000;&quot;&gt;+ submit_module()&lt;/p&gt;" style="verticalAlign=top;align=left;overflow=fill;html=1;rounded=0;shadow=0;comic=0;labelBackgroundColor=none;strokeColor=black;strokeWidth=1;fillColor=#ffffff;" parent="1" vertex="1">
                    <mxGeometry x="290" y="868.75" width="315" height="189" as="geometry"/>
                </mxCell>
                <mxCell id="79" value="&lt;p style=&quot;text-align: center; margin: 0px 0px 0px 4px; font-size: 10px; font-family: Times, serif; color: rgb(0, 0, 0);&quot;&gt;&lt;b&gt;NodeEditor&lt;/b&gt;&lt;/p&gt;&lt;hr size=&quot;1&quot;&gt;&lt;p style=&quot;margin:0px;text-align:start;margin-left:4px;;font-size:10.0px;font-family:Times,serif;color:#000000;&quot;&gt;- uuid : Union[String, Integer]&lt;br&gt;&lt;/p&gt;&lt;p style=&quot;margin:0px;text-align:start;margin-left:4px;;font-size:10.0px;font-family:Times,serif;color:#000000;&quot;&gt;- nodes : List[Node]&lt;br&gt;&lt;/p&gt;&lt;hr size=&quot;1&quot;&gt;&lt;p style=&quot;margin:0px;text-align:start;margin-left:4px;;font-size:10.0px;font-family:Times,serif;color:#000000;&quot;&gt;+ add_node(node: Node)&lt;br&gt;+ on_drop(sender, app_data, node_params)&lt;/p&gt;&lt;p style=&quot;margin:0px;text-align:start;margin-left:4px;;font-size:10.0px;font-family:Times,serif;color:#000000;&quot;&gt;+ clear()&lt;br&gt;- submit(parent: Union[String, Integer])&lt;/p&gt;" style="verticalAlign=top;align=left;overflow=fill;html=1;rounded=0;shadow=0;comic=0;labelBackgroundColor=none;strokeColor=black;strokeWidth=1;fillColor=#ffffff;" parent="1" vertex="1">
                    <mxGeometry x="320" y="111.25" width="186" height="120" as="geometry"/>
                </mxCell>
                <mxCell id="125" style="edgeStyle=none;html=1;entryX=1.004;entryY=0.431;entryDx=0;entryDy=0;entryPerimeter=0;endArrow=classic;endFill=1;" parent="1" source="80" target="72" edge="1">
                    <mxGeometry relative="1" as="geometry"/>
                </mxCell>
                <mxCell id="129" style="edgeStyle=none;html=1;entryX=1.002;entryY=0.387;entryDx=0;entryDy=0;endArrow=classic;endFill=1;exitX=0.5;exitY=0;exitDx=0;exitDy=0;entryPerimeter=0;" parent="1" source="80" target="77" edge="1">
                    <mxGeometry relative="1" as="geometry">
                        <Array as="points">
                            <mxPoint x="950" y="240"/>
                            <mxPoint x="820" y="240"/>
                            <mxPoint x="820" y="155"/>
                        </Array>
                    </mxGeometry>
                </mxCell>
                <mxCell id="80" value="&lt;p style=&quot;text-align: center; margin: 0px 0px 0px 4px; font-size: 10px; font-family: Times, serif; color: rgb(0, 0, 0);&quot;&gt;&lt;b&gt;OutputNodeAttribute&lt;/b&gt;&lt;/p&gt;&lt;hr size=&quot;1&quot;&gt;&lt;p style=&quot;margin:0px;text-align:start;margin-left:4px;;font-size:10.0px;font-family:Times,serif;color:#000000;&quot;&gt;- uuid : Union[String, Integer]&lt;br&gt;&lt;/p&gt;&lt;p style=&quot;margin:0px;text-align:start;margin-left:4px;;font-size:10.0px;font-family:Times,serif;color:#000000;&quot;&gt;- children : List[InputNodeAttributes]&lt;br&gt;+ label : String&lt;br&gt;&lt;/p&gt;&lt;p style=&quot;margin:0px;text-align:start;margin-left:4px;;font-size:10.0px;font-family:Times,serif;color:#000000;&quot;&gt;+ data : Any&lt;br&gt;&lt;/p&gt;&lt;hr size=&quot;1&quot;&gt;&lt;p style=&quot;margin:0px;text-align:start;margin-left:4px;;font-size:10.0px;font-family:Times,serif;color:#000000;&quot;&gt;+ add_child(parent: Union[String, Integer],&amp;nbsp;&lt;/p&gt;&lt;p style=&quot;margin:0px;text-align:start;margin-left:4px;;font-size:10.0px;font-family:Times,serif;color:#000000;&quot;&gt;&lt;span style=&quot;white-space: pre;&quot;&gt;&#9;&lt;/span&gt;&lt;span style=&quot;white-space: pre;&quot;&gt;&#9;&lt;/span&gt;&amp;nbsp; &amp;nbsp; child: InputNodeAttribute)&lt;br&gt;+ remove_child(parent: Union[String, Integer],&amp;nbsp;&lt;/p&gt;&lt;p style=&quot;margin:0px;text-align:start;margin-left:4px;;font-size:10.0px;font-family:Times,serif;color:#000000;&quot;&gt;&lt;span style=&quot;white-space: pre;&quot;&gt;&#9;&lt;/span&gt;&lt;span style=&quot;white-space: pre;&quot;&gt;&#9;&lt;/span&gt;&amp;nbsp; &amp;nbsp; child: InputNodeAttribute)&lt;br&gt;&lt;/p&gt;&lt;p style=&quot;margin:0px;text-align:start;margin-left:4px;;font-size:10.0px;font-family:Times,serif;color:#000000;&quot;&gt;+ execute(data)&lt;br&gt;- submit(parent)&lt;br&gt;&lt;/p&gt;" style="verticalAlign=top;align=left;overflow=fill;html=1;rounded=0;shadow=0;comic=0;labelBackgroundColor=none;strokeColor=black;strokeWidth=1;fillColor=#ffffff;" parent="1" vertex="1">
                    <mxGeometry x="846.81" y="270" width="204.88" height="163.5" as="geometry"/>
                </mxCell>
                <mxCell id="127" style="edgeStyle=none;html=1;entryX=-0.002;entryY=0.483;entryDx=0;entryDy=0;endArrow=classic;endFill=1;exitX=1;exitY=0.25;exitDx=0;exitDy=0;entryPerimeter=0;" parent="1" source="81" target="72" edge="1">
                    <mxGeometry relative="1" as="geometry">
                        <Array as="points">
                            <mxPoint x="510" y="460"/>
                            <mxPoint x="510" y="364"/>
                        </Array>
                    </mxGeometry>
                </mxCell>
                <mxCell id="81" value="&lt;p style=&quot;text-align: center; margin: 0px 0px 0px 4px; font-size: 10px; font-family: Times, serif; color: rgb(0, 0, 0);&quot;&gt;&lt;b&gt;ParamNode&lt;/b&gt;&lt;/p&gt;&lt;hr size=&quot;1&quot;&gt;&lt;p style=&quot;margin:0px;text-align:start;margin-left:4px;;font-size:10.0px;font-family:Times,serif;color:#000000;&quot;&gt;- uuid : Union[String, Integer]&lt;br&gt;&lt;/p&gt;&lt;p style=&quot;margin:0px;text-align:start;margin-left:4px;;font-size:10.0px;font-family:Times,serif;color:#000000;&quot;&gt;- label : String&lt;br&gt;- params : Dict[String, Any]&lt;br&gt;- type : String&lt;br&gt;&lt;/p&gt;&lt;hr size=&quot;1&quot;&gt;&lt;p style=&quot;margin:0px;text-align:start;margin-left:4px;;font-size:10.0px;font-family:Times,serif;color:#000000;&quot;&gt;+ submit(parent)&lt;/p&gt;" style="verticalAlign=top;align=left;overflow=fill;html=1;rounded=0;shadow=0;comic=0;labelBackgroundColor=none;strokeColor=black;strokeWidth=1;fillColor=#ffffff;" parent="1" vertex="1">
                    <mxGeometry x="320" y="433.5" width="168.26" height="106" as="geometry"/>
                </mxCell>
                <mxCell id="82" value="&lt;p style=&quot;text-align: center; margin: 0px 0px 0px 4px; font-size: 10px; font-family: Times, serif; color: rgb(0, 0, 0);&quot;&gt;&lt;b&gt;TrainParamsNode&lt;/b&gt;&lt;/p&gt;&lt;hr size=&quot;1&quot;&gt;&lt;p style=&quot;margin:0px;text-align:start;margin-left:4px;;font-size:10.0px;font-family:Times,serif;color:#000000;&quot;&gt;+ pipeline : Optional[Pipeline]&lt;/p&gt;&lt;hr size=&quot;1&quot;&gt;&lt;p style=&quot;margin:0px;text-align:start;margin-left:4px;;font-size:10.0px;font-family:Times,serif;color:#000000;&quot;&gt;+ factory(name: String, data: Any,&amp;nbsp;&lt;/p&gt;&lt;p style=&quot;margin:0px;text-align:start;margin-left:4px;;font-size:10.0px;font-family:Times,serif;color:#000000;&quot;&gt;&lt;span style=&quot;white-space: pre;&quot;&gt;&#9;&lt;/span&gt;&lt;span style=&quot;white-space: pre;&quot;&gt;&#9;&lt;/span&gt;train_params: Tuple[Dict[String, Any]])&lt;br&gt;+ set_pipline(pipeline: Pipeline)&lt;/p&gt;" style="verticalAlign=top;align=left;overflow=fill;html=1;rounded=0;shadow=0;comic=0;labelBackgroundColor=none;strokeColor=black;strokeWidth=1;fillColor=#ffffff;" parent="1" vertex="1">
                    <mxGeometry x="690" y="730.12" width="212.75" height="95.75" as="geometry"/>
                </mxCell>
                <mxCell id="118" style="edgeStyle=none;html=1;entryX=0.5;entryY=1;entryDx=0;entryDy=0;exitX=0.5;exitY=0;exitDx=0;exitDy=0;" parent="1" edge="1">
                    <mxGeometry relative="1" as="geometry">
                        <mxPoint x="1030.8750000000002" y="310" as="sourcePoint"/>
                    </mxGeometry>
                </mxCell>
                <mxCell id="98" value="&lt;p style=&quot;text-align: center; margin: 0px 0px 0px 4px; font-size: 10px; font-family: Times, serif; color: rgb(0, 0, 0);&quot;&gt;&lt;b&gt;App&lt;/b&gt;&lt;/p&gt;&lt;hr size=&quot;1&quot;&gt;&lt;p style=&quot;margin:0px;text-align:start;margin-left:4px;;font-size:10.0px;font-family:Times,serif;color:#000000;&quot;&gt;&lt;span style=&quot;background-color: initial;&quot;&gt;+ node_editor&lt;/span&gt;&lt;br&gt;&lt;/p&gt;&lt;p style=&quot;margin:0px;text-align:start;margin-left:4px;;font-size:10.0px;font-family:Times,serif;color:#000000;&quot;&gt;+ left_panel&lt;br&gt;+ right_panel&lt;/p&gt;&lt;p style=&quot;margin:0px;text-align:start;margin-left:4px;;font-size:10.0px;font-family:Times,serif;color:#000000;&quot;&gt;+ plugins : list&lt;/p&gt;&lt;p style=&quot;margin:0px;text-align:start;margin-left:4px;;font-size:10.0px;font-family:Times,serif;color:#000000;&quot;&gt;+ plugin_menu_id&lt;br&gt;&lt;/p&gt;&lt;p style=&quot;margin:0px;text-align:start;margin-left:4px;;font-size:10.0px;font-family:Times,serif;color:#000000;&quot;&gt;+ dataset_container&lt;/p&gt;&lt;p style=&quot;margin:0px;text-align:start;margin-left:4px;;font-size:10.0px;font-family:Times,serif;color:#000000;&quot;&gt;+ layer_container&lt;/p&gt;&lt;p style=&quot;margin:0px;text-align:start;margin-left:4px;;font-size:10.0px;font-family:Times,serif;color:#000000;&quot;&gt;+ archs_container&lt;br&gt;+ tool_container&lt;/p&gt;&lt;hr size=&quot;1&quot;&gt;&lt;p style=&quot;margin:0px;text-align:start;margin-left:4px;;font-size:10.0px;font-family:Times,serif;color:#000000;&quot;&gt;+ add_plugin(name, callback)&lt;br&gt;+ start()&lt;br&gt;+ update()&lt;/p&gt;" style="verticalAlign=top;align=left;overflow=fill;html=1;rounded=0;shadow=0;comic=0;labelBackgroundColor=none;strokeColor=black;strokeWidth=1;fillColor=#ffffff;" parent="1" vertex="1">
                    <mxGeometry x="1179.82" y="150" width="140.37" height="190" as="geometry"/>
                </mxCell>
                <mxCell id="119" style="rounded=1;html=1;exitX=0.5;exitY=0;entryX=0.5;entryY=1;jettySize=auto;curved=0;endArrow=block;dashed=0;endFill=1;" parent="1" source="120" target="121" edge="1">
                    <mxGeometry relative="1" as="geometry"/>
                </mxCell>
                <mxCell id="120" value="&lt;p style=&quot;text-align: center; margin: 0px 0px 0px 4px; font-size: 10px; font-family: Times, serif; color: rgb(0, 0, 0);&quot;&gt;&lt;b&gt;Module&lt;/b&gt;&lt;/p&gt;&lt;hr size=&quot;1&quot;&gt;&lt;p style=&quot;margin:0px;text-align:start;margin-left:4px;;font-size:10.0px;font-family:Times,serif;color:#000000;&quot;&gt;+ loss_func&lt;br&gt;+ lr&lt;br&gt;+ net&lt;br&gt;+ optimizer&lt;/p&gt;&lt;hr size=&quot;1&quot;&gt;&lt;p style=&quot;margin:0px;text-align:start;margin-left:4px;;font-size:10.0px;font-family:Times,serif;color:#000000;&quot;&gt;+ accuracy(Y_hat, Y, averaged)&lt;br&gt;+ apply_init(inputs, init)&lt;br&gt;+ configure_optimizers()&lt;br&gt;+ forward(X)&lt;br&gt;+ init_cnn(module)&lt;br&gt;+ layer_summary(X_shape)&lt;br&gt;+ loss(Y_hat, Y, averaged)&lt;br&gt;+ metric(batch, mode, averaged)&lt;br&gt;+ training_step(batch)&lt;br&gt;+ validation_step(batch)&lt;/p&gt;" style="verticalAlign=top;align=left;overflow=fill;html=1;rounded=0;shadow=0;comic=0;labelBackgroundColor=none;strokeColor=black;strokeWidth=1;fillColor=#ffffff;" parent="1" vertex="1">
                    <mxGeometry x="1170.4399999999998" y="660.12" width="159.13" height="217" as="geometry"/>
                </mxCell>
                <mxCell id="121" value="&lt;p style=&quot;text-align: center; margin: 0px 0px 0px 4px; font-size: 10px; font-family: Times, serif; color: rgb(0, 0, 0);&quot;&gt;&lt;b&gt;Pipeline&lt;/b&gt;&lt;/p&gt;&lt;hr size=&quot;1&quot;&gt;&lt;p style=&quot;margin:0px;text-align:start;margin-left:4px;;font-size:10.0px;font-family:Times,serif;color:#000000;&quot;&gt;+ net: nn.Sequential&lt;br&gt;+ pipeline : List[Any]&lt;br&gt;+ task : clearml.Task&lt;br&gt;+ train_params : Dict[String, Any]&lt;br&gt;+ trainer : lightning.Trainer&lt;/p&gt;&lt;hr size=&quot;1&quot;&gt;&lt;p style=&quot;margin:0px;text-align:start;margin-left:4px;;font-size:10.0px;font-family:Times,serif;color:#000000;&quot;&gt;+ collect_layers(node: Node)&lt;br&gt;+ flow(sender, app_data, data_node: DataNode, fake: Boolean)&lt;br&gt;+ get_params(params_node: ParamNode): dict&lt;br&gt;+ init_dataloader(data_node: DataNode)&lt;br&gt;+ init_layer(layer: Node): any&lt;br&gt;+ init_normal(module: nn.Module)&lt;br&gt;+ init_xavier(module: nn.Module)&lt;br&gt;+ keep_train(sender, app_data, data_node)&lt;br&gt;+ load_weight(sender, app_data, train_params__file: tuple[2])&lt;br&gt;+ save_weight(sender, app_data, train_params__file: tuple[2])&lt;br&gt;+ train(fake: Boolean)&lt;/p&gt;" style="verticalAlign=top;align=left;overflow=fill;html=1;rounded=0;shadow=0;comic=0;labelBackgroundColor=none;strokeColor=black;strokeWidth=1;fillColor=#ffffff;" parent="1" vertex="1">
                    <mxGeometry x="1110" y="370" width="280" height="240" as="geometry"/>
                </mxCell>
                <mxCell id="132" style="rounded=1;html=1;entryX=1.006;entryY=0.399;jettySize=auto;curved=0;endArrow=block;dashed=0;endFill=1;entryDx=0;entryDy=0;exitX=0;exitY=0.5;exitDx=0;exitDy=0;entryPerimeter=0;" parent="1" source="82" target="71" edge="1">
                    <mxGeometry relative="1" as="geometry">
                        <mxPoint x="729.9999999999998" y="778.0050000000003" as="sourcePoint"/>
                        <mxPoint x="649.9999999999998" y="600.1875" as="targetPoint"/>
                        <Array as="points">
                            <mxPoint x="660" y="770"/>
                            <mxPoint x="660" y="620"/>
                        </Array>
                    </mxGeometry>
                </mxCell>
            </root>
        </mxGraphModel>
    </diagram>
    <diagram id="WTOAs6ad3auapFlQtd5j" name="app">
        <mxGraphModel dx="1333" dy="841" grid="1" gridSize="10" guides="1" tooltips="1" connect="1" arrows="1" fold="1" page="1" pageScale="1" pageWidth="850" pageHeight="1100" math="0" shadow="0">
            <root>
                <mxCell id="0"/>
                <mxCell id="1" parent="0"/>
                <mxCell id="vucHj6TK11RLGn7L2akp-1" style="rounded=1;html=1;exitX=0.5;exitY=0;entryX=0.5;entryY=1;jettySize=auto;curved=0;endArrow=block;dashed=0;endFill=1;" parent="1" source="vucHj6TK11RLGn7L2akp-5" target="vucHj6TK11RLGn7L2akp-6" edge="1">
                    <mxGeometry relative="1" as="geometry"/>
                </mxCell>
                <mxCell id="vucHj6TK11RLGn7L2akp-2" value="&lt;p style='margin:0px;text-align:start;margin-left:4px;;font-size:10.0px;font-family:Times,serif;color:#000000;'&gt;App&lt;/p&gt;&lt;hr size='1'/&gt;&lt;p style='margin:0px;text-align:start;margin-left:4px;;font-size:10.0px;font-family:Times,serif;color:#000000;'&gt;archs_container : DragSourceContainer&lt;br/&gt;dataset_container : DragSourceContainer&lt;br/&gt;layer_container : DragSourceContainer&lt;br/&gt;left_panel&lt;br/&gt;node_editor : NodeEditor&lt;br/&gt;plugin_menu_id&lt;br/&gt;plugins : list&lt;br/&gt;right_panel&lt;/p&gt;&lt;hr size='1'/&gt;&lt;p style='margin:0px;text-align:start;margin-left:4px;;font-size:10.0px;font-family:Times,serif;color:#000000;'&gt;__init__()&lt;br/&gt;add_plugin(name, callback)&lt;br/&gt;start()&lt;br/&gt;update()&lt;/p&gt;" style="verticalAlign=top;align=left;overflow=fill;html=1;rounded=0;shadow=0;comic=0;labelBackgroundColor=none;strokeColor=black;strokeWidth=1;fillColor=#ffffff;" parent="1" vertex="1">
                    <mxGeometry x="4" y="461.5" width="239.5" height="238.5" as="geometry"/>
                </mxCell>
                <mxCell id="vucHj6TK11RLGn7L2akp-3" value="&lt;p style='margin:0px;text-align:start;margin-left:4px;;font-size:10.0px;font-family:Times,serif;color:#000000;'&gt;CustomDataset&lt;/p&gt;&lt;hr size='1'/&gt;&lt;p style='margin:0px;text-align:start;margin-left:4px;;font-size:10.0px;font-family:Times,serif;color:#000000;'&gt;__init__(root: str, train: bool, download: bool, transform): None&lt;br/&gt;copy_dataset(sender, app_data, train_params__file: tuple[2])&lt;/p&gt;" style="verticalAlign=top;align=left;overflow=fill;html=1;rounded=0;shadow=0;comic=0;labelBackgroundColor=none;strokeColor=black;strokeWidth=1;fillColor=#ffffff;" parent="1" vertex="1">
                    <mxGeometry x="262" y="548" width="365.5" height="65.5" as="geometry"/>
                </mxCell>
                <mxCell id="vucHj6TK11RLGn7L2akp-4" value="&lt;p style='margin:0px;text-align:start;margin-left:4px;;font-size:10.0px;font-family:Times,serif;color:#000000;'&gt;DataModule&lt;/p&gt;&lt;hr size='1'/&gt;&lt;p style='margin:0px;text-align:start;margin-left:4px;;font-size:10.0px;font-family:Times,serif;color:#000000;'&gt;train&lt;br/&gt;val&lt;/p&gt;&lt;hr size='1'/&gt;&lt;p style='margin:0px;text-align:start;margin-left:4px;;font-size:10.0px;font-family:Times,serif;color:#000000;'&gt;__init__(dataset_class, transforms)&lt;br/&gt;train_dataloader()&lt;br/&gt;val_dataloader()&lt;/p&gt;" style="verticalAlign=top;align=left;overflow=fill;html=1;rounded=0;shadow=0;comic=0;labelBackgroundColor=none;strokeColor=black;strokeWidth=1;fillColor=#ffffff;" parent="1" vertex="1">
                    <mxGeometry x="645.5" y="519.25" width="206.5" height="123" as="geometry"/>
                </mxCell>
                <mxCell id="vucHj6TK11RLGn7L2akp-5" value="&lt;p style='margin:0px;text-align:start;margin-left:4px;;font-size:10.0px;font-family:Times,serif;color:#000000;'&gt;Module&lt;/p&gt;&lt;hr size='1'/&gt;&lt;p style='margin:0px;text-align:start;margin-left:4px;;font-size:10.0px;font-family:Times,serif;color:#000000;'&gt;accept_init : list&lt;br/&gt;loss_func&lt;br/&gt;lr&lt;br/&gt;net&lt;br/&gt;optimizer&lt;/p&gt;&lt;hr size='1'/&gt;&lt;p style='margin:0px;text-align:start;margin-left:4px;;font-size:10.0px;font-family:Times,serif;color:#000000;'&gt;__init__(sequential, optimizer, lr, loss_func)&lt;br/&gt;accuracy(Y_hat, Y, averaged)&lt;br/&gt;apply_init(inputs, init)&lt;br/&gt;configure_optimizers()&lt;br/&gt;forward(X)&lt;br/&gt;init_cnn(module)&lt;br/&gt;layer_summary(X_shape)&lt;br/&gt;loss(Y_hat, Y, averaged)&lt;br/&gt;metric(batch, mode, averaged)&lt;br/&gt;training_step(batch)&lt;br/&gt;validation_step(batch)&lt;/p&gt;" style="verticalAlign=top;align=left;overflow=fill;html=1;rounded=0;shadow=0;comic=0;labelBackgroundColor=none;strokeColor=black;strokeWidth=1;fillColor=#ffffff;" parent="1" vertex="1">
                    <mxGeometry x="869.62" y="428.5" width="258.26" height="251.5" as="geometry"/>
                </mxCell>
                <mxCell id="vucHj6TK11RLGn7L2akp-6" value="&lt;p style='margin:0px;text-align:start;margin-left:4px;;font-size:10.0px;font-family:Times,serif;color:#000000;'&gt;Pipeline&lt;/p&gt;&lt;hr size='1'/&gt;&lt;p style='margin:0px;text-align:start;margin-left:4px;;font-size:10.0px;font-family:Times,serif;color:#000000;'&gt;accept_init : list&lt;br/&gt;debug : bool&lt;br/&gt;max_epochs&lt;br/&gt;net&lt;br/&gt;pipeline : list&lt;br/&gt;task : Task&lt;br/&gt;train_params : dict&lt;br/&gt;trainer : Trainer&lt;/p&gt;&lt;hr size='1'/&gt;&lt;p style='margin:0px;text-align:start;margin-left:4px;;font-size:10.0px;font-family:Times,serif;color:#000000;'&gt;__init__(init_node: 'nodes.DataNode')&lt;br/&gt;collect_layers(node: Node)&lt;br/&gt;flow(sender, app_data, data_node: 'nodes.DataNode', fake)&lt;br/&gt;get_params(params_node: Node): dict&lt;br/&gt;init_dataloader(data_node: Node)&lt;br/&gt;init_layer(layer: Node): Any&lt;br/&gt;init_normal(module: nn.Module)&lt;br/&gt;init_xavier(module)&lt;br/&gt;keep_train(sender, app_data, data_node: 'nodes.DataNode')&lt;br/&gt;load_weight(sender, app_data, train_params__file)&lt;br/&gt;save_weight(sender, app_data, train_params__file)&lt;br/&gt;train(fake)&lt;/p&gt;" style="verticalAlign=top;align=left;overflow=fill;html=1;rounded=0;shadow=0;comic=0;labelBackgroundColor=none;strokeColor=black;strokeWidth=1;fillColor=#ffffff;" parent="1" vertex="1">
                    <mxGeometry x="829.88" y="90" width="337.74" height="295.5" as="geometry"/>
                </mxCell>
                <mxCell id="vucHj6TK11RLGn7L2akp-7" value="&lt;p style='margin:0px;text-align:start;margin-left:4px;;font-size:10.0px;font-family:Times,serif;color:#000000;'&gt;ProgressBoard&lt;/p&gt;&lt;hr size='1'/&gt;&lt;p style='margin:0px;text-align:start;margin-left:4px;;font-size:10.0px;font-family:Times,serif;color:#000000;'&gt;enable : bool&lt;br/&gt;task&lt;br/&gt;widget : ViewNode_2D&lt;br/&gt;x : int&lt;/p&gt;&lt;hr size='1'/&gt;&lt;p style='margin:0px;text-align:start;margin-left:4px;;font-size:10.0px;font-family:Times,serif;color:#000000;'&gt;__init__(task, widget)&lt;br/&gt;disable()&lt;br/&gt;get_metrics(trainer, model)&lt;br/&gt;on_train_batch_end(trainer, pl_module, outputs, batch, batch_idx)&lt;/p&gt;" style="verticalAlign=top;align=left;overflow=fill;html=1;rounded=0;shadow=0;comic=0;labelBackgroundColor=none;strokeColor=black;strokeWidth=1;fillColor=#ffffff;" parent="1" vertex="1">
                    <mxGeometry x="1146" y="494.5" width="377.5" height="172.5" as="geometry"/>
                </mxCell>
            </root>
        </mxGraphModel>
    </diagram>
</mxfile>